<svg width="52" height="51" viewBox="0 0 52 51" fill="none" xmlns="http://www.w3.org/2000/svg">
<g filter="url(#filter0_d_2372_6302)">
<path fill-rule="evenodd" clip-rule="evenodd" d="M47.5382 21.9885C47.5382 20.464 47.3969 18.9981 47.1343 17.5908H26.2134V25.9074H38.1682C37.6533 28.5949 36.0882 30.872 33.7356 32.3965V37.791H40.9146C45.1149 34.0481 47.5382 28.5363 47.5382 21.9885Z" fill="#4285F4"/>
<path fill-rule="evenodd" clip-rule="evenodd" d="M26.213 43C32.2106 43 37.2389 41.0747 40.9142 37.7911L33.7352 32.3966C31.7461 33.6866 29.2017 34.4488 26.213 34.4488C20.4274 34.4488 15.5304 30.6668 13.7836 25.585H6.3623V31.1554C10.0174 38.182 17.5296 43 26.213 43Z" fill="#34A853"/>
<path fill-rule="evenodd" clip-rule="evenodd" d="M13.784 25.5852C13.3397 24.2952 13.0873 22.9172 13.0873 21.5002C13.0873 20.0831 13.3397 18.7052 13.784 17.4152V11.8447H6.3627C4.85824 14.7472 4 18.0309 4 21.5002C4 24.9695 4.85824 28.2531 6.3627 31.1556L13.784 25.5852Z" fill="#FBBC05"/>
<path fill-rule="evenodd" clip-rule="evenodd" d="M26.213 8.55114C29.4743 8.55114 32.4024 9.63591 34.7046 11.7664L41.0758 5.59977C37.2288 2.13045 32.2005 0 26.213 0C17.5296 0 10.0174 4.81795 6.3623 11.8445L13.7836 17.415C15.5304 12.3332 20.4274 8.55114 26.213 8.55114Z" fill="#EA4335"/>
</g>
<defs>
<filter id="filter0_d_2372_6302" x="0" y="0" width="51.5381" height="51" filterUnits="userSpaceOnUse" color-interpolation-filters="sRGB">
<feFlood flood-opacity="0" result="BackgroundImageFix"/>
<feColorMatrix in="SourceAlpha" type="matrix" values="0 0 0 0 0 0 0 0 0 0 0 0 0 0 0 0 0 0 127 0" result="hardAlpha"/>
<feOffset dy="4"/>
<feGaussianBlur stdDeviation="2"/>
<feComposite in2="hardAlpha" operator="out"/>
<feColorMatrix type="matrix" values="0 0 0 0 0 0 0 0 0 0 0 0 0 0 0 0 0 0 0.25 0"/>
<feBlend mode="normal" in2="BackgroundImageFix" result="effect1_dropShadow_2372_6302"/>
<feBlend mode="normal" in="SourceGraphic" in2="effect1_dropShadow_2372_6302" result="shape"/>
</filter>
</defs>
</svg>
