<svg width="51" height="73" viewBox="0 0 51 73" fill="none" xmlns="http://www.w3.org/2000/svg">
<path d="M51 25.55C51 11.4615 39.5592 0 25.5 0C11.4408 0 0 11.4615 0 25.55C0 38.3961 9.52159 49.0277 21.8571 50.8084V58.4H14.5714C12.5579 58.4 10.9286 60.0343 10.9286 62.05C10.9286 64.0657 12.5579 65.7 14.5714 65.7H21.8571V69.35C21.8571 71.3657 23.4865 73 25.5 73C27.5135 73 29.1429 71.3657 29.1429 69.35V65.7H36.4286C38.4421 65.7 40.0714 64.0657 40.0714 62.05C40.0714 60.0343 38.4421 58.4 36.4286 58.4H29.1429V50.8084C41.4784 49.0277 51 38.3961 51 25.55ZM7.28571 25.55C7.28571 15.4875 15.4572 7.3 25.5 7.3C35.5428 7.3 43.7143 15.4875 43.7143 25.55C43.7143 35.6125 35.5428 43.8 25.5 43.8C15.4572 43.8 7.28571 35.6125 7.28571 25.55Z" fill="#FF375F"/>
</svg>
