<svg width="32" height="36" viewBox="0 0 32 36" fill="none" xmlns="http://www.w3.org/2000/svg">
<path d="M30.4591 27.3484C29.9005 28.5744 29.2393 29.703 28.4733 30.7406C27.4291 32.1551 26.5742 33.1343 25.9153 33.678C24.8939 34.5704 23.7996 35.0275 22.6277 35.0535C21.7864 35.0535 20.7719 34.826 19.5909 34.3647C18.4061 33.9054 17.3172 33.678 16.3216 33.678C15.2774 33.678 14.1575 33.9054 12.9597 34.3647C11.76 34.826 10.7936 35.0665 10.0547 35.0903C8.93094 35.1358 7.81084 34.6658 6.69279 33.678C5.97919 33.0866 5.08662 32.0728 4.01736 30.6366C2.87013 29.103 1.92695 27.3245 1.18804 25.297C0.396697 23.107 0 20.9863 0 18.9331C0 16.5813 0.534858 14.5529 1.60617 12.8531C2.44812 11.4877 3.56823 10.4107 4.97012 9.62005C6.37201 8.82939 7.88676 8.42648 9.518 8.4007C10.4106 8.4007 11.5811 8.66303 13.0356 9.17858C14.4861 9.69587 15.4174 9.95819 15.8257 9.95819C16.131 9.95819 17.1656 9.65146 18.9195 9.03995C20.5781 8.47284 21.978 8.23802 23.1247 8.33052C26.2322 8.5688 28.5668 9.73269 30.1194 11.8296C27.3402 13.4295 25.9654 15.6704 25.9928 18.5452C26.0179 20.7844 26.8728 22.6477 28.5531 24.1272C29.3146 24.8139 30.165 25.3446 31.1111 25.7216C30.9059 26.2869 30.6893 26.8285 30.4591 27.3484ZM23.3322 0.702067C23.3322 2.45713 22.6574 4.09584 21.3122 5.6126C19.689 7.41574 17.7255 8.45767 15.5964 8.29326C15.5692 8.08271 15.5535 7.86111 15.5535 7.62824C15.5535 5.94338 16.3255 4.14024 17.6964 2.66593C18.3808 1.91946 19.2512 1.29879 20.3068 0.80366C21.3601 0.31592 22.3564 0.0461902 23.2934 0C23.3208 0.234625 23.3322 0.469265 23.3322 0.702044V0.702067Z" fill="black"/>
</svg>
