<svg width="42" height="47" viewBox="0 0 42 47" fill="none" xmlns="http://www.w3.org/2000/svg">
<path d="M41.1197 36.6273C40.3657 38.2693 39.4731 39.7808 38.439 41.1705C37.0293 43.0649 35.8751 44.3762 34.9856 45.1044C33.6068 46.2997 32.1294 46.9118 30.5474 46.9466C29.4117 46.9466 28.0421 46.642 26.4478 46.0241C24.8482 45.409 23.3782 45.1044 22.0342 45.1044C20.6245 45.1044 19.1127 45.409 17.4956 46.0241C15.876 46.642 14.5713 46.9641 13.5738 46.996C12.0568 47.0569 10.5446 46.4273 9.03526 45.1044C8.0719 44.3124 6.86694 42.9547 5.42344 41.0312C3.87467 38.9772 2.60138 36.5954 1.60385 33.8799C0.535542 30.9468 0 28.1066 0 25.3569C0 22.2071 0.722058 19.4905 2.16833 17.214C3.30497 15.3854 4.8171 13.9429 6.70966 12.884C8.60221 11.8251 10.6471 11.2855 12.8493 11.2509C14.0543 11.2509 15.6344 11.6023 17.5981 12.2927C19.5562 12.9855 20.8135 13.3369 21.3647 13.3369C21.7768 13.3369 23.1736 12.9261 25.5413 12.1071C27.7805 11.3476 29.6702 11.0331 31.2184 11.1569C35.4135 11.4761 38.5652 13.0349 40.6612 15.8432C36.9093 17.986 35.0534 20.9872 35.0903 24.8373C35.1241 27.8362 36.2783 30.3318 38.5467 32.3133C39.5747 33.2329 40.7227 33.9437 42 34.4485C41.723 35.2057 41.4306 35.931 41.1197 36.6273ZM31.4985 0.940268C31.4985 3.2908 30.5874 5.48549 28.7715 7.51688C26.5801 9.93179 23.9295 11.3272 21.0551 11.107C21.0185 10.8251 20.9972 10.5283 20.9972 10.2164C20.9972 7.95988 22.0394 5.54497 23.8901 3.57045C24.814 2.57071 25.9892 1.73945 27.4142 1.07633C28.8361 0.423108 30.1812 0.0618618 31.4461 0C31.4831 0.31423 31.4985 0.62848 31.4985 0.940237V0.940268Z" fill="white"/>
</svg>
