<svg width="63" height="63" viewBox="0 0 63 63" fill="none" xmlns="http://www.w3.org/2000/svg">
<path d="M7.50259 55.4869C12.3486 60.3322 18.7909 63 25.6448 63C32.4987 63 38.9374 60.3322 43.7835 55.4869C48.6295 50.6433 51.2995 44.202 51.2995 37.3491C51.2995 31.7375 49.4822 26.4169 46.1711 22.008L55.5561 12.6253L55.6695 19.274C55.7053 21.2761 57.3374 22.8757 59.3345 22.8757C59.3559 22.8757 59.3774 22.8757 59.3953 22.8757C61.4211 22.84 63.0352 21.1724 62.9994 19.1487L62.7381 3.86302C62.7024 1.88768 61.1097 0.295227 59.134 0.261233L43.8443 0C43.8264 0 43.8049 0 43.7835 0C41.7864 0 40.1543 1.5996 40.1185 3.60179C40.0827 5.62545 41.6969 7.29304 43.7226 7.32883L50.375 7.44222L40.9882 16.8265C36.5784 13.5163 31.2588 11.7 25.6448 11.7C18.7909 11.7 12.3486 14.3678 7.5026 19.2131C-2.50086 29.2133 -2.50086 45.4867 7.50259 55.4869ZM12.6851 24.3948C16.146 20.9344 20.7487 19.0288 25.6448 19.0288C30.5374 19.0288 35.14 20.9344 38.601 24.3948C42.0619 27.8553 43.9696 32.4555 43.9696 37.3491C43.9696 42.2445 42.0619 46.8447 38.601 50.3052C35.14 53.7656 30.5374 55.6712 25.6448 55.6712C20.7487 55.6712 16.146 53.7656 12.6851 50.3052C5.54127 43.1606 5.54127 31.5376 12.6851 24.3948Z" fill="#0091FF"/>
</svg>
